<svg width="53" height="51" viewBox="0 0 53 51" fill="none" xmlns="http://www.w3.org/2000/svg">
<path d="M16.446 41.7832C14.4809 41.7832 12.8057 41.0313 11.4206 39.5274C10.0356 38.0236 9.34302 36.2048 9.34302 34.0712C9.34302 31.9375 10.0356 30.1187 11.4206 28.6149C12.8057 27.111 14.4809 26.3591 16.446 26.3591C18.4112 26.3591 20.0863 27.111 21.4714 28.6149C22.8565 30.1187 23.549 31.9375 23.549 34.0712C23.549 36.2048 22.8565 38.0236 21.4714 39.5274C20.0863 41.0313 18.4112 41.7832 16.446 41.7832ZM16.446 38.6984C17.6299 38.6984 18.6361 38.2485 19.4648 37.3488C20.2935 36.449 20.7078 35.3565 20.7078 34.0712C20.7078 32.7858 20.2935 31.6933 19.4648 30.7935C18.6361 29.8938 17.6299 29.4439 16.446 29.4439C15.2622 29.4439 14.2559 29.8938 13.4272 30.7935C12.5986 31.6933 12.1842 32.7858 12.1842 34.0712C12.1842 35.3565 12.5986 36.449 13.4272 37.3488C14.2559 38.2485 15.2622 38.6984 16.446 38.6984ZM24.9696 37.156V29.4439L20.4237 25.1252C20.1396 24.8424 19.9265 24.5147 19.7844 24.1419C19.6424 23.7692 19.5714 23.3771 19.5714 22.9658C19.5714 22.5545 19.6483 22.1625 19.8022 21.7897C19.9561 21.417 20.1633 21.0892 20.4237 20.8064L24.4014 16.4877C24.6855 16.1792 25.0111 15.9479 25.3781 15.7936C25.7451 15.6394 26.1298 15.5623 26.5323 15.5623C26.9348 15.5623 27.3196 15.6394 27.6865 15.7936C28.0535 15.9479 28.3791 16.1792 28.6632 16.4877L31.3624 19.4183C32.0253 20.1381 32.783 20.7036 33.6353 21.1149C34.4877 21.5262 35.3874 21.7319 36.3345 21.7319V24.8167C34.9849 24.8167 33.7004 24.5339 32.4811 23.9684C31.2617 23.4028 30.1785 22.6059 29.2314 21.5776L28.095 20.3437L24.6855 24.0455L27.8108 27.593V37.156H24.9696ZM31.3624 16.3335C30.581 16.3335 29.9122 16.0314 29.3558 15.4273C28.7993 14.8232 28.5211 14.097 28.5211 13.2486C28.5211 12.4003 28.7993 11.6741 29.3558 11.07C29.9122 10.4659 30.581 10.1638 31.3624 10.1638C32.1437 10.1638 32.8125 10.4659 33.369 11.07C33.9254 11.6741 34.2036 12.4003 34.2036 13.2486C34.2036 14.097 33.9254 14.8232 33.369 15.4273C32.8125 16.0314 32.1437 16.3335 31.3624 16.3335ZM36.3345 41.7832C34.3693 41.7832 32.6942 41.0313 31.3091 39.5274C29.924 38.0236 29.2314 36.2048 29.2314 34.0712C29.2314 31.9375 29.924 30.1187 31.3091 28.6149C32.6942 27.111 34.3693 26.3591 36.3345 26.3591C38.2996 26.3591 39.9748 27.111 41.3598 28.6149C42.7449 30.1187 43.4375 31.9375 43.4375 34.0712C43.4375 36.2048 42.7449 38.0236 41.3598 39.5274C39.9748 41.0313 38.2996 41.7832 36.3345 41.7832ZM36.3345 38.6984C37.5183 38.6984 38.5246 38.2485 39.3532 37.3488C40.1819 36.449 40.5963 35.3565 40.5963 34.0712C40.5963 32.7858 40.1819 31.6933 39.3532 30.7935C38.5246 29.8938 37.5183 29.4439 36.3345 29.4439C35.1506 29.4439 34.1444 29.8938 33.3157 30.7935C32.487 31.6933 32.0727 32.7858 32.0727 34.0712C32.0727 35.3565 32.487 36.449 33.3157 37.3488C34.1444 38.2485 35.1506 38.6984 36.3345 38.6984Z" fill="#1C1B1F"/>
<path d="M39.6543 42.5368L40.5798 41.8322L39.7444 41.0229L10.811 12.9916L10.0266 12.2316L9.33853 13.0799C7.84848 14.9172 6.70538 16.9338 5.91325 19.1265C5.11979 21.3228 4.72355 23.607 4.72355 25.9735C4.72355 31.833 6.83482 36.8268 11.034 40.895C15.2318 44.962 20.3711 46.9958 26.3902 46.9958C28.8219 46.9958 31.1694 46.6137 33.428 45.8479C35.6832 45.0832 37.7598 43.9788 39.6543 42.5368ZM41.9694 38.9554L42.7539 39.7154L43.4419 38.8671C44.932 37.0298 46.0751 35.0132 46.8672 32.8205C47.6606 30.6242 48.0569 28.34 48.0569 25.9735C48.0569 20.114 45.9456 15.1202 41.7465 11.0519C37.5486 6.98498 32.4093 4.95114 26.3902 4.95114C23.9585 4.95114 21.611 5.33322 19.3524 6.09908C17.0973 6.86378 15.0206 7.96814 13.1262 9.4102L12.2006 10.1147L13.0361 10.9241L41.9694 38.9554ZM26.3902 50.0014C22.9424 50.0014 19.7159 49.3682 16.7009 48.1078C13.667 46.8395 11.0396 45.1236 8.80896 42.9625C6.57849 40.8016 4.81058 38.2594 3.50475 35.3275C2.20775 32.4155 1.55688 29.301 1.55688 25.9735C1.55688 22.6459 2.20775 19.5315 3.50475 16.6195C4.81058 13.6876 6.57848 11.1454 8.80896 8.98444C11.0396 6.82332 13.667 5.10748 16.7009 3.83913C19.7159 2.57872 22.9424 1.94556 26.3902 1.94556C29.838 1.94556 33.0646 2.57872 36.0795 3.83913C39.1134 5.10748 41.7408 6.82332 43.9715 8.98444C46.202 11.1454 47.9699 13.6876 49.2757 16.6195C50.5727 19.5315 51.2235 22.6459 51.2235 25.9735C51.2235 29.301 50.5727 32.4155 49.2757 35.3275C47.9699 38.2594 46.202 40.8016 43.9715 42.9625C41.7408 45.1236 39.1134 46.8395 36.0795 48.1078C33.0646 49.3682 29.838 50.0014 26.3902 50.0014Z" fill="#F0EEF5" fill-opacity="0.46" stroke="black" stroke-width="2"/>
</svg>
