<svg width="53" height="51" viewBox="0 0 53 51" fill="none" xmlns="http://www.w3.org/2000/svg">
<path d="M13.7339 21.012C13.0027 21.012 12.398 20.7794 11.9198 20.3141C11.4417 19.8488 11.2026 19.2603 11.2026 18.5487C11.2026 17.837 11.4417 17.2485 11.9198 16.7832C12.398 16.3179 13.0027 16.0853 13.7339 16.0853C14.4652 16.0853 15.0699 16.3179 15.548 16.7832C16.0261 17.2485 16.2652 17.837 16.2652 18.5487C16.2652 19.2603 16.0261 19.8488 15.548 20.3141C15.0699 20.7794 14.4652 21.012 13.7339 21.012ZM11.2026 39.0768V30.8656H9.51514V24.2965C9.51514 23.8312 9.67686 23.4412 10.0003 23.1264C10.3237 22.8117 10.7245 22.6543 11.2026 22.6543H16.2652C16.7433 22.6543 17.1441 22.8117 17.4675 23.1264C17.791 23.4412 17.9527 23.8312 17.9527 24.2965V30.8656H16.2652V35.7923H29.7653V27.5811H26.8121C24.8152 27.5811 23.1207 26.9036 21.7285 25.5488C20.3363 24.1939 19.6402 22.5448 19.6402 20.6015C19.6402 19.1508 20.041 17.8576 20.8426 16.7217C21.6441 15.5858 22.6777 14.7441 23.9434 14.1967C24.2527 12.4176 25.1035 10.919 26.4957 9.70103C27.8879 8.48303 29.5403 7.87402 31.4528 7.87402C33.3653 7.87402 35.0177 8.48303 36.4098 9.70103C37.802 10.919 38.6528 12.4176 38.9622 14.1967C40.2278 14.7441 41.2614 15.5858 42.063 16.7217C42.8646 17.8576 43.2654 19.1508 43.2654 20.6015C43.2654 22.5448 42.5693 24.1939 41.1771 25.5488C39.7849 26.9036 38.0903 27.5811 36.0934 27.5811H33.1403V35.7923H41.5779V39.0768H11.2026ZM26.8121 24.2965H36.0934C37.1622 24.2965 38.0622 23.9407 38.7935 23.2291C39.5247 22.5174 39.8903 21.6416 39.8903 20.6015C39.8903 19.8625 39.6864 19.1919 39.2786 18.5897C38.8708 17.9876 38.3153 17.5359 37.6122 17.2349L35.8403 16.4958L35.5872 14.6894C35.4184 13.6766 34.9473 12.835 34.1739 12.1644C33.4005 11.4938 32.4934 11.1585 31.4528 11.1585C30.4122 11.1585 29.5051 11.4938 28.7317 12.1644C27.9582 12.835 27.4871 13.6766 27.3184 14.6894L27.0653 16.4958L25.2934 17.2349C24.5902 17.5359 24.0348 17.9876 23.6269 18.5897C23.2191 19.1919 23.0152 19.8625 23.0152 20.6015C23.0152 21.6416 23.3809 22.5174 24.1121 23.2291C24.8434 23.9407 25.7434 24.2965 26.8121 24.2965Z" fill="#1C1B1F"/>
<path d="M39.6543 42.0385L40.5798 41.334L39.7444 40.5246L10.811 12.4933L10.0266 11.7333L9.33853 12.5816C7.84848 14.4189 6.70538 16.4355 5.91325 18.6282C5.11979 20.8245 4.72355 23.1087 4.72355 25.4752C4.72355 31.3347 6.83482 36.3285 11.034 40.3968C15.2318 44.4637 20.3711 46.4975 26.3902 46.4975C28.8219 46.4975 31.1694 46.1155 33.428 45.3496C35.6832 44.5849 37.7598 43.4805 39.6543 42.0385ZM41.9694 38.4571L42.7539 39.2171L43.4419 38.3688C44.932 36.5315 46.0751 34.5149 46.8672 32.3222C47.6606 30.1259 48.0569 27.8417 48.0569 25.4752C48.0569 19.6157 45.9456 14.6219 41.7465 10.5536C37.5486 6.48669 32.4093 4.45285 26.3902 4.45285C23.9585 4.45285 21.611 4.83493 19.3524 5.60079C17.0973 6.36549 15.0206 7.46985 13.1262 8.91191L12.2006 9.61644L13.0361 10.4258L41.9694 38.4571ZM26.3902 49.5031C22.9424 49.5031 19.7159 48.87 16.7009 47.6096C13.667 46.3412 11.0396 44.6254 8.80896 42.4642C6.57848 40.3033 4.81058 37.7611 3.50475 34.8292C2.20775 31.9172 1.55688 28.8028 1.55688 25.4752C1.55688 22.1476 2.20775 19.0332 3.50475 16.1212C4.81058 13.1893 6.57848 10.6471 8.80896 8.48615C11.0396 6.32503 13.667 4.60919 16.7009 3.34084C19.7159 2.08043 22.9424 1.44727 26.3902 1.44727C29.838 1.44727 33.0646 2.08043 36.0795 3.34084C39.1134 4.60919 41.7408 6.32503 43.9715 8.48615C46.202 10.6471 47.9699 13.1893 49.2757 16.1212C50.5727 19.0332 51.2235 22.1476 51.2235 25.4752C51.2235 28.8028 50.5727 31.9172 49.2757 34.8292C47.9699 37.7611 46.202 40.3033 43.9715 42.4642C41.7408 44.6254 39.1134 46.3412 36.0795 47.6096C33.0646 48.87 29.838 49.5031 26.3902 49.5031Z" fill="#FAFAFC" fill-opacity="0.46" stroke="black" stroke-width="2"/>
</svg>
