<svg width="486" height="98" viewBox="0 0 486 98" fill="none" xmlns="http://www.w3.org/2000/svg">
<path fill-rule="evenodd" clip-rule="evenodd" d="M30.3958 27.7083C30.3958 25.405 31.0789 23.1534 32.3585 21.2383C33.6382 19.3231 35.457 17.8304 37.585 16.949C39.713 16.0675 42.0546 15.8369 44.3137 16.2863C46.5727 16.7356 48.6478 17.8448 50.2765 19.4735C51.9052 21.1022 53.0144 23.1773 53.4637 25.4363C53.9131 27.6954 53.6825 30.037 52.801 32.165C51.9196 34.293 50.4269 36.1118 48.5117 37.3915C46.5966 38.6712 44.345 39.3542 42.0417 39.3542H18.75C18.0372 39.3542 17.3537 39.071 16.8497 38.567C16.3456 38.063 16.0625 37.3794 16.0625 36.6667C16.0625 35.9539 16.3456 35.2703 16.8497 34.7663C17.3537 34.2623 18.0372 33.9792 18.75 33.9792H42.0417C43.2819 33.9792 44.4943 33.6114 45.5256 32.9223C46.5568 32.2333 47.3605 31.2539 47.8352 30.1081C48.3098 28.9622 48.434 27.7014 48.192 26.485C47.95 25.2685 47.3528 24.1512 46.4758 23.2742C45.5988 22.3972 44.4815 21.8 43.265 21.558C42.0486 21.316 40.7878 21.4402 39.6419 21.9148C38.4961 22.3895 37.5167 23.1932 36.8277 24.2245C36.1386 25.2557 35.7708 26.4681 35.7708 27.7083V28.9876C35.7708 29.7004 35.4877 30.3839 34.9837 30.8879C34.4797 31.3919 33.7961 31.6751 33.0833 31.6751C32.3706 31.6751 31.687 31.3919 31.183 30.8879C30.679 30.3839 30.3958 29.7004 30.3958 28.9876V27.7083Z" fill="black"/>
<path d="M19.646 58.1667C19.646 57.454 19.9291 56.7704 20.4331 56.2664C20.9372 55.7624 21.6207 55.4792 22.3335 55.4792H74.2918C77.3039 55.4792 80.2483 56.3724 82.7527 58.0458C85.2571 59.7192 87.2091 62.0977 88.3618 64.8805C89.5144 67.6632 89.816 70.7253 89.2284 73.6795C88.6408 76.6336 87.1903 79.3472 85.0605 81.4771C82.9306 83.6069 80.2171 85.0573 77.2629 85.645C74.3087 86.2326 71.2467 85.931 68.4639 84.7783C65.6811 83.6257 63.3026 81.6737 61.6292 79.1693C59.9558 76.6649 59.0627 73.7205 59.0627 70.7084V68.9167C59.0627 68.204 59.3458 67.5204 59.8498 67.0164C60.3538 66.5124 61.0374 66.2292 61.7502 66.2292C62.4629 66.2292 63.1465 66.5124 63.6505 67.0164C64.1545 67.5204 64.4377 68.204 64.4377 68.9167V70.7084C64.4377 72.6574 65.0156 74.5626 66.0984 76.1831C67.1812 77.8036 68.7202 79.0666 70.5208 79.8125C72.3214 80.5583 74.3028 80.7535 76.2143 80.3732C78.1258 79.993 79.8817 79.0545 81.2598 77.6764C82.6379 76.2982 83.5764 74.5424 83.9567 72.6309C84.3369 70.7193 84.1417 68.738 83.3959 66.9374C82.6501 65.1368 81.387 63.5978 79.7665 62.515C78.146 61.4322 76.2408 60.8542 74.2918 60.8542H22.3335C21.6207 60.8542 20.9372 60.5711 20.4331 60.0671C19.9291 59.5631 19.646 58.8795 19.646 58.1667Z" fill="#B7CDE8"/>
<path opacity="0.7" d="M59.0623 34.8749C59.0623 31.8629 59.9555 28.9185 61.6289 26.4141C63.3023 23.9096 65.6808 21.9577 68.4636 20.805C71.2463 19.6524 74.3084 19.3508 77.2626 19.9384C80.2167 20.526 82.9303 21.9764 85.0601 24.1063C87.19 26.2361 88.6404 28.9497 89.228 31.9039C89.8157 34.858 89.5141 37.9201 88.3614 40.7029C87.2088 43.4856 85.2568 45.8641 82.7524 47.5375C80.248 49.2109 77.3035 50.1041 74.2915 50.1041H15.1665C14.4537 50.1041 13.7702 49.8209 13.2662 49.3169C12.7622 48.8129 12.479 48.1294 12.479 47.4166C12.479 46.7038 12.7622 46.0202 13.2662 45.5162C13.7702 45.0122 14.4537 44.7291 15.1665 44.7291H74.2915C76.2405 44.7291 78.1457 44.1512 79.7662 43.0684C81.3867 41.9856 82.6497 40.4466 83.3956 38.646C84.1414 36.8453 84.3365 34.864 83.9563 32.9525C83.5761 31.041 82.6376 29.2851 81.2595 27.907C79.8813 26.5288 78.1255 25.5903 76.214 25.2101C74.3024 24.8299 72.3211 25.025 70.5205 25.7709C68.7199 26.5167 67.1809 27.7797 66.0981 29.4002C65.0153 31.0208 64.4373 32.926 64.4373 34.8749V36.6666C64.4373 37.3794 64.1542 38.0629 63.6502 38.5669C63.1462 39.0709 62.4626 39.3541 61.7498 39.3541C61.0371 39.3541 60.3535 39.0709 59.8495 38.5669C59.3455 38.0629 59.0623 37.3794 59.0623 36.6666V34.8749Z" fill="black"/>
<path d="M112 75V28.4545H132.182C135.727 28.4545 138.705 28.9318 141.114 29.8864C143.538 30.8409 145.364 32.1894 146.591 33.9318C147.833 35.6742 148.455 37.7273 148.455 40.0909C148.455 41.803 148.076 43.3636 147.318 44.7727C146.576 46.1818 145.53 47.3636 144.182 48.3182C142.833 49.2576 141.258 49.9091 139.455 50.2727V50.7273C141.455 50.803 143.273 51.3106 144.909 52.25C146.545 53.1742 147.848 54.4545 148.818 56.0909C149.788 57.7121 150.273 59.6212 150.273 61.8182C150.273 64.3636 149.606 66.6288 148.273 68.6136C146.955 70.5985 145.076 72.1591 142.636 73.2955C140.197 74.4318 137.288 75 133.909 75H112ZM124.636 64.9091H130.545C132.667 64.9091 134.258 64.5152 135.318 63.7273C136.379 62.9242 136.909 61.7424 136.909 60.1818C136.909 59.0909 136.659 58.1667 136.159 57.4091C135.659 56.6515 134.947 56.0758 134.023 55.6818C133.114 55.2879 132.015 55.0909 130.727 55.0909H124.636V64.9091ZM124.636 47.2727H129.818C130.924 47.2727 131.902 47.0985 132.75 46.75C133.598 46.4015 134.258 45.9015 134.727 45.25C135.212 44.5833 135.455 43.7727 135.455 42.8182C135.455 41.3788 134.939 40.2803 133.909 39.5227C132.879 38.75 131.576 38.3636 130 38.3636H124.636V47.2727ZM151.092 75V40.0909H163.274V46.7273H163.637C164.274 44.2727 165.281 42.4773 166.66 41.3409C168.054 40.2045 169.683 39.6364 171.546 39.6364C172.092 39.6364 172.63 39.6818 173.16 39.7727C173.705 39.8485 174.228 39.9621 174.728 40.1136V50.8182C174.107 50.6061 173.342 50.447 172.433 50.3409C171.524 50.2348 170.743 50.1818 170.092 50.1818C168.865 50.1818 167.758 50.4621 166.774 51.0227C165.804 51.5682 165.039 52.3409 164.478 53.3409C163.918 54.3258 163.637 55.4848 163.637 56.8182V75H151.092ZM189.729 75.6364C186.002 75.6364 182.79 74.9242 180.093 73.5C177.411 72.0606 175.343 70 173.888 67.3182C172.449 64.6212 171.729 61.3939 171.729 57.6364C171.729 54.0303 172.456 50.8788 173.911 48.1818C175.365 45.4848 177.418 43.3864 180.07 41.8864C182.722 40.3864 185.85 39.6364 189.456 39.6364C192.093 39.6364 194.479 40.0455 196.615 40.8636C198.752 41.6818 200.578 42.8712 202.093 44.4318C203.608 45.9773 204.775 47.8561 205.593 50.0682C206.411 52.2803 206.82 54.7727 206.82 57.5455V60.4545H175.638V53.5455H195.275C195.259 52.5455 195.002 51.6667 194.502 50.9091C194.017 50.1364 193.358 49.5379 192.525 49.1136C191.706 48.6742 190.775 48.4545 189.729 48.4545C188.714 48.4545 187.782 48.6742 186.934 49.1136C186.085 49.5379 185.403 50.1288 184.888 50.8864C184.388 51.6439 184.123 52.5303 184.093 53.5455V61C184.093 62.1212 184.328 63.1212 184.797 64C185.267 64.8788 185.941 65.5682 186.82 66.0682C187.699 66.5682 188.759 66.8182 190.002 66.8182C190.865 66.8182 191.653 66.697 192.365 66.4545C193.093 66.2121 193.714 65.8636 194.229 65.4091C194.744 64.9394 195.123 64.3788 195.365 63.7273H206.82C206.426 66.1515 205.494 68.2576 204.025 70.0455C202.555 71.8182 200.608 73.197 198.184 74.1818C195.775 75.1515 192.956 75.6364 189.729 75.6364ZM217.827 75.5455C215.599 75.5455 213.63 75.1818 211.918 74.4545C210.221 73.7121 208.887 72.5909 207.918 71.0909C206.948 69.5909 206.463 67.6818 206.463 65.3636C206.463 63.4545 206.789 61.8258 207.44 60.4773C208.092 59.1136 209.001 58 210.168 57.1364C211.334 56.2727 212.69 55.6136 214.236 55.1591C215.796 54.7045 217.478 54.4091 219.281 54.2727C221.236 54.1212 222.804 53.9394 223.986 53.7273C225.183 53.5 226.046 53.1894 226.577 52.7955C227.107 52.3864 227.372 51.8485 227.372 51.1818V51.0909C227.372 50.1818 227.024 49.4848 226.327 49C225.63 48.5152 224.736 48.2727 223.645 48.2727C222.448 48.2727 221.471 48.5379 220.713 49.0682C219.971 49.5833 219.524 50.3788 219.372 51.4545H207.827C207.978 49.3333 208.652 47.3788 209.849 45.5909C211.061 43.7879 212.827 42.3485 215.145 41.2727C217.463 40.1818 220.357 39.6364 223.827 39.6364C226.327 39.6364 228.569 39.9318 230.554 40.5227C232.539 41.0985 234.228 41.9091 235.622 42.9545C237.016 43.9848 238.077 45.197 238.804 46.5909C239.546 47.9697 239.918 49.4697 239.918 51.0909V75H228.19V70.0909H227.918C227.221 71.3939 226.372 72.447 225.372 73.25C224.387 74.053 223.258 74.6364 221.986 75C220.728 75.3636 219.342 75.5455 217.827 75.5455ZM221.918 67.6364C222.872 67.6364 223.766 67.4394 224.599 67.0455C225.448 66.6515 226.137 66.0833 226.668 65.3409C227.198 64.5985 227.463 63.697 227.463 62.6364V59.7273C227.13 59.8636 226.774 59.9924 226.395 60.1136C226.031 60.2348 225.637 60.3485 225.213 60.4545C224.804 60.5606 224.364 60.6591 223.895 60.75C223.44 60.8409 222.963 60.9242 222.463 61C221.493 61.1515 220.698 61.4015 220.077 61.75C219.471 62.0833 219.016 62.5 218.713 63C218.425 63.4848 218.281 64.0303 218.281 64.6364C218.281 65.6061 218.622 66.3485 219.304 66.8636C219.986 67.3788 220.857 67.6364 221.918 67.6364ZM262.89 40.0909V49.1818H239.89V40.0909H262.89ZM244.345 31.7273H256.89V63.7727C256.89 64.2576 256.973 64.6667 257.14 65C257.307 65.3182 257.564 65.5606 257.913 65.7273C258.261 65.8788 258.708 65.9545 259.254 65.9545C259.632 65.9545 260.072 65.9091 260.572 65.8182C261.087 65.7273 261.466 65.6515 261.708 65.5909L263.526 74.4091C262.966 74.5758 262.163 74.7803 261.117 75.0227C260.087 75.2652 258.86 75.4242 257.435 75.5C254.557 75.6515 252.14 75.3561 250.185 74.6136C248.231 73.8561 246.761 72.6667 245.776 71.0455C244.792 69.4242 244.314 67.3939 244.345 64.9545V31.7273ZM277.465 55.3636V75H264.919V28.4545H277.01V46.7273H277.374C278.162 44.5 279.472 42.7652 281.306 41.5227C283.139 40.2652 285.344 39.6364 287.919 39.6364C290.389 39.6364 292.533 40.197 294.351 41.3182C296.184 42.4394 297.601 43.9848 298.601 45.9545C299.616 47.9242 300.116 50.1818 300.101 52.7273V75H287.556V55.3636C287.571 53.6364 287.139 52.2803 286.26 51.2955C285.397 50.3106 284.162 49.8182 282.556 49.8182C281.541 49.8182 280.647 50.0455 279.874 50.5C279.116 50.9394 278.525 51.5758 278.101 52.4091C277.692 53.2273 277.48 54.2121 277.465 55.3636ZM319.182 75.6364C315.454 75.6364 312.242 74.9242 309.545 73.5C306.863 72.0606 304.795 70 303.341 67.3182C301.901 64.6212 301.182 61.3939 301.182 57.6364C301.182 54.0303 301.909 50.8788 303.363 48.1818C304.818 45.4848 306.871 43.3864 309.523 41.8864C312.174 40.3864 315.303 39.6364 318.909 39.6364C321.545 39.6364 323.932 40.0455 326.068 40.8636C328.204 41.6818 330.03 42.8712 331.545 44.4318C333.06 45.9773 334.227 47.8561 335.045 50.0682C335.863 52.2803 336.273 54.7727 336.273 57.5455V60.4545H305.091V53.5455H324.727C324.712 52.5455 324.454 51.6667 323.954 50.9091C323.469 50.1364 322.81 49.5379 321.977 49.1136C321.159 48.6742 320.227 48.4545 319.182 48.4545C318.166 48.4545 317.235 48.6742 316.386 49.1136C315.538 49.5379 314.856 50.1288 314.341 50.8864C313.841 51.6439 313.576 52.5303 313.545 53.5455V61C313.545 62.1212 313.78 63.1212 314.25 64C314.719 64.8788 315.394 65.5682 316.273 66.0682C317.151 66.5682 318.212 66.8182 319.454 66.8182C320.318 66.8182 321.106 66.697 321.818 66.4545C322.545 66.2121 323.166 65.8636 323.682 65.4091C324.197 64.9394 324.576 64.3788 324.818 63.7273H336.273C335.879 66.1515 334.947 68.2576 333.477 70.0455C332.007 71.8182 330.06 73.197 327.636 74.1818C325.227 75.1515 322.409 75.6364 319.182 75.6364ZM345.938 75L332.211 28.4545H346.302L352.665 57.0909H353.029L360.575 28.4545H371.665L379.211 57.1818H379.575L385.938 28.4545H400.029L386.302 75H374.211L366.302 49H365.938L358.029 75H345.938ZM413.127 75.6364C409.399 75.6364 406.187 74.9242 403.49 73.5C400.808 72.0606 398.74 70 397.286 67.3182C395.846 64.6212 395.127 61.3939 395.127 57.6364C395.127 54.0303 395.854 50.8788 397.308 48.1818C398.763 45.4848 400.816 43.3864 403.467 41.8864C406.119 40.3864 409.248 39.6364 412.854 39.6364C415.49 39.6364 417.877 40.0455 420.013 40.8636C422.149 41.6818 423.975 42.8712 425.49 44.4318C427.005 45.9773 428.172 47.8561 428.99 50.0682C429.808 52.2803 430.217 54.7727 430.217 57.5455V60.4545H399.036V53.5455H418.672C418.657 52.5455 418.399 51.6667 417.899 50.9091C417.414 50.1364 416.755 49.5379 415.922 49.1136C415.104 48.6742 414.172 48.4545 413.127 48.4545C412.111 48.4545 411.18 48.6742 410.331 49.1136C409.483 49.5379 408.801 50.1288 408.286 50.8864C407.786 51.6439 407.521 52.5303 407.49 53.5455V61C407.49 62.1212 407.725 63.1212 408.195 64C408.664 64.8788 409.339 65.5682 410.217 66.0682C411.096 66.5682 412.157 66.8182 413.399 66.8182C414.263 66.8182 415.051 66.697 415.763 66.4545C416.49 66.2121 417.111 65.8636 417.627 65.4091C418.142 64.9394 418.521 64.3788 418.763 63.7273H430.217C429.824 66.1515 428.892 68.2576 427.422 70.0455C425.952 71.8182 424.005 73.197 421.581 74.1818C419.172 75.1515 416.354 75.6364 413.127 75.6364ZM444.042 28.4545V75H431.497V28.4545H444.042ZM459.14 28.4545V75H446.594V28.4545H459.14Z" fill="#1E1E1E"/>
</svg>
