<svg width="35" height="32" viewBox="0 0 35 32" fill="none" xmlns="http://www.w3.org/2000/svg">
<path d="M4.79764 13.7513C4.06638 13.7513 3.46169 13.5187 2.98356 13.0533C2.50543 12.588 2.26637 11.9996 2.26637 11.2879C2.26637 10.5763 2.50543 9.98781 2.98356 9.5225C3.46169 9.0572 4.06638 8.82454 4.79764 8.82454C5.52889 8.82454 6.13358 9.0572 6.61171 9.5225C7.08984 9.98781 7.3289 10.5763 7.3289 11.2879C7.3289 11.9996 7.08984 12.588 6.61171 13.0533C6.13358 13.5187 5.52889 13.7513 4.79764 13.7513ZM2.26637 31.8161V23.6048H0.578857V17.0358C0.578857 16.5705 0.740577 16.1805 1.06402 15.8657C1.38746 15.5509 1.78824 15.3936 2.26637 15.3936H7.3289C7.80703 15.3936 8.20781 15.5509 8.53125 15.8657C8.85469 16.1805 9.01641 16.5705 9.01641 17.0358V23.6048H7.3289V28.5316H20.829V20.3203H17.8758C15.879 20.3203 14.1844 19.6429 12.7922 18.288C11.4 16.9332 10.7039 15.2841 10.7039 13.3407C10.7039 11.8901 11.1047 10.5968 11.9063 9.46092C12.7078 8.32503 13.7414 7.48337 15.0071 6.93595C15.3165 5.15685 16.1672 3.65829 17.5594 2.44029C18.9516 1.22228 20.604 0.613281 22.5165 0.613281C24.429 0.613281 26.0814 1.22228 27.4736 2.44029C28.8658 3.65829 29.7166 5.15685 30.0259 6.93595C31.2916 7.48337 32.3252 8.32503 33.1267 9.46092C33.9283 10.5968 34.3291 11.8901 34.3291 13.3407C34.3291 15.2841 33.633 16.9332 32.2408 18.288C30.8486 19.6429 29.154 20.3203 27.1572 20.3203H24.204V28.5316H32.6416V31.8161H2.26637ZM17.8758 17.0358H27.1572C28.2259 17.0358 29.1259 16.68 29.8572 15.9683C30.5884 15.2567 30.9541 14.3808 30.9541 13.3407C30.9541 12.6017 30.7502 11.9311 30.3423 11.329C29.9345 10.7268 29.379 10.2752 28.6759 9.97412L26.904 9.23511L26.6509 7.42863C26.4822 6.41591 26.0111 5.57425 25.2376 4.90367C24.4642 4.23308 23.5571 3.89779 22.5165 3.89779C21.4759 3.89779 20.5688 4.23308 19.7954 4.90367C19.0219 5.57425 18.5509 6.41591 18.3821 7.42863L18.129 9.23511L16.3571 9.97412C15.654 10.2752 15.0985 10.7268 14.6907 11.329C14.2829 11.9311 14.0789 12.6017 14.0789 13.3407C14.0789 14.3808 14.4446 15.2567 15.1758 15.9683C15.9071 16.68 16.8071 17.0358 17.8758 17.0358Z" fill="#1C1B1F"/>
</svg>
