<svg width="35" height="33" viewBox="0 0 35 33" fill="none" xmlns="http://www.w3.org/2000/svg">
<path d="M7.40794 32.5183C5.44278 32.5183 3.76765 31.7664 2.38256 30.2625C0.997475 28.7587 0.304932 26.9399 0.304932 24.8063C0.304932 22.6726 0.997475 20.8538 2.38256 19.35C3.76765 17.8461 5.44278 17.0942 7.40794 17.0942C9.37311 17.0942 11.0482 17.8461 12.4333 19.35C13.8184 20.8538 14.511 22.6726 14.511 24.8063C14.511 26.9399 13.8184 28.7587 12.4333 30.2625C11.0482 31.7664 9.37311 32.5183 7.40794 32.5183ZM7.40794 29.4335C8.59178 29.4335 9.59804 28.9836 10.4267 28.0839C11.2554 27.1842 11.6697 26.0916 11.6697 24.8063C11.6697 23.5209 11.2554 22.4284 10.4267 21.5287C9.59804 20.6289 8.59178 20.179 7.40794 20.179C6.22411 20.179 5.21785 20.6289 4.38916 21.5287C3.56048 22.4284 3.14614 23.5209 3.14614 24.8063C3.14614 26.0916 3.56048 27.1842 4.38916 28.0839C5.21785 28.9836 6.22411 29.4335 7.40794 29.4335ZM15.9316 27.8911V20.179L11.3856 15.8603C11.1015 15.5775 10.8884 15.2498 10.7464 14.877C10.6043 14.5043 10.5333 14.1122 10.5333 13.7009C10.5333 13.2896 10.6102 12.8976 10.7641 12.5248C10.918 12.1521 11.1252 11.8243 11.3856 11.5415L15.3633 7.2228C15.6474 6.91432 15.973 6.68296 16.34 6.52872C16.707 6.37448 17.0917 6.29736 17.4942 6.29736C17.8967 6.29736 18.2815 6.37448 18.6485 6.52872C19.0154 6.68296 19.341 6.91432 19.6251 7.2228L22.3243 10.1534C22.9872 10.8732 23.7449 11.4387 24.5972 11.85C25.4496 12.2613 26.3493 12.467 27.2964 12.467V15.5518C25.9468 15.5518 24.6623 15.269 23.443 14.7035C22.2236 14.1379 21.1404 13.341 20.1934 12.3128L19.0569 11.0788L15.6474 14.7806L18.7728 18.3282V27.8911H15.9316ZM22.3243 7.06856C21.5429 7.06856 20.8741 6.76651 20.3177 6.1624C19.7613 5.55829 19.4831 4.83207 19.4831 3.98374C19.4831 3.13542 19.7613 2.4092 20.3177 1.80509C20.8741 1.20098 21.5429 0.898926 22.3243 0.898926C23.1056 0.898926 23.7745 1.20098 24.3309 1.80509C24.8873 2.4092 25.1655 3.13542 25.1655 3.98374C25.1655 4.83207 24.8873 5.55829 24.3309 6.1624C23.7745 6.76651 23.1056 7.06856 22.3243 7.06856ZM27.2964 32.5183C25.3312 32.5183 23.6561 31.7664 22.271 30.2625C20.8859 28.7587 20.1934 26.9399 20.1934 24.8063C20.1934 22.6726 20.8859 20.8538 22.271 19.35C23.6561 17.8461 25.3312 17.0942 27.2964 17.0942C29.2615 17.0942 30.9367 17.8461 32.3218 19.35C33.7068 20.8538 34.3994 22.6726 34.3994 24.8063C34.3994 26.9399 33.7068 28.7587 32.3218 30.2625C30.9367 31.7664 29.2615 32.5183 27.2964 32.5183ZM27.2964 29.4335C28.4802 29.4335 29.4865 28.9836 30.3152 28.0839C31.1438 27.1842 31.5582 26.0916 31.5582 24.8063C31.5582 23.5209 31.1438 22.4284 30.3152 21.5287C29.4865 20.6289 28.4802 20.179 27.2964 20.179C26.1125 20.179 25.1063 20.6289 24.2776 21.5287C23.4489 22.4284 23.0346 23.5209 23.0346 24.8063C23.0346 26.0916 23.4489 27.1842 24.2776 28.0839C25.1063 28.9836 26.1125 29.4335 27.2964 29.4335Z" fill="#1C1B1F"/>
</svg>
