<svg width="41" height="24" viewBox="0 0 41 24" fill="none" xmlns="http://www.w3.org/2000/svg">
<path d="M20.3048 23.029C18.3462 23.029 16.4029 22.963 14.4748 22.8311C12.5468 22.6991 10.6188 22.5012 8.69075 22.2373C7.80325 22.1317 7.06876 21.7821 6.4873 21.1883C5.90583 20.5946 5.61509 19.9019 5.61509 19.1102V18.0811C3.9625 17.7116 2.63124 16.9595 1.62132 15.8248C0.611405 14.6901 0.106445 13.397 0.106445 11.9456C0.106445 10.5206 0.611405 9.24078 1.62132 8.10605C2.63124 6.97133 3.9625 6.21925 5.61509 5.8498V4.02897C5.61509 3.18453 5.95938 2.44564 6.64796 1.8123C7.33655 1.17897 8.1858 0.862305 9.19571 0.862305C10.0832 0.862305 10.9707 0.934874 11.8582 1.08001C12.7457 1.22515 13.6485 1.32411 14.5666 1.37689C15.5154 1.48244 16.4641 1.54182 17.4128 1.55501C18.3615 1.56821 19.3255 1.5748 20.3048 1.5748C21.2535 1.5748 22.2022 1.56161 23.151 1.53522C24.0997 1.50883 25.0637 1.45605 26.043 1.37689C26.9305 1.32411 27.8104 1.22515 28.6826 1.08001C29.5548 0.934874 30.4346 0.862305 31.3221 0.862305C32.332 0.862305 33.1966 1.17237 33.9158 1.79251C34.635 2.41265 34.9945 3.15814 34.9945 4.02897V5.8498C36.6165 6.21925 37.9401 6.97133 38.9654 8.10605C39.9906 9.24078 40.5032 10.5206 40.5032 11.9456C40.5032 13.397 39.9906 14.6835 38.9654 15.805C37.9401 16.9265 36.6165 17.672 34.9945 18.0415V19.0706C34.9945 19.8623 34.6962 20.555 34.0994 21.1488C33.5026 21.7425 32.7605 22.1054 31.873 22.2373C29.945 22.5276 28.0169 22.7321 26.0889 22.8508C24.1609 22.9696 22.2328 23.029 20.3048 23.029ZM20.3048 19.8623C22.141 19.8623 23.9773 19.7963 25.8135 19.6644C27.6497 19.5324 29.4859 19.3345 31.3221 19.0706V4.02897C29.4859 4.26647 27.6497 4.4446 25.8135 4.56335C23.9773 4.6821 22.141 4.74147 20.3048 4.74147C18.438 4.74147 16.5865 4.6821 14.7503 4.56335C12.9141 4.4446 11.0931 4.26647 9.28753 4.02897C9.25692 4.02897 9.24927 4.03557 9.26457 4.04876C9.27987 4.06196 9.28753 4.05536 9.28753 4.02897V19.0706C11.1237 19.3345 12.9523 19.5324 14.7732 19.6644C16.5941 19.7963 18.438 19.8623 20.3048 19.8623ZM20.3048 17.4873C21.6208 17.4873 22.9291 17.4213 24.2297 17.2894C25.5304 17.1574 26.8234 16.9463 28.1087 16.6561C28.629 16.5241 29.0115 16.2734 29.2564 15.904C29.5012 15.5345 29.5471 15.1387 29.3941 14.7165C29.2411 14.2942 28.9503 13.971 28.5219 13.7467C28.0934 13.5224 27.6344 13.4762 27.1447 13.6081C26.0124 13.872 24.8801 14.0567 23.7477 14.1623C22.6154 14.2679 21.4678 14.3206 20.3048 14.3206C19.1419 14.3206 17.9866 14.2745 16.839 14.1821C15.6913 14.0897 14.5513 13.8984 13.419 13.6081C12.9294 13.4762 12.4703 13.5158 12.0418 13.7269C11.6134 13.938 11.3227 14.2547 11.1696 14.6769C11.0166 15.0991 11.0702 15.4949 11.3303 15.8644C11.5904 16.2338 11.9653 16.4845 12.455 16.6165C13.7403 16.9595 15.0334 17.1904 16.334 17.3092C17.6347 17.4279 18.9583 17.4873 20.3048 17.4873ZM5.61509 14.6769V9.25397C5.03362 9.54425 4.58222 9.92689 4.26088 10.4019C3.93955 10.8769 3.77888 11.3915 3.77888 11.9456C3.77888 12.5262 3.93955 13.054 4.26088 13.529C4.58222 14.004 5.03362 14.3866 5.61509 14.6769ZM34.9945 14.6769C35.5454 14.3866 35.9892 14.004 36.3258 13.529C36.6624 13.054 36.8308 12.5262 36.8308 11.9456C36.8308 11.3915 36.6624 10.8769 36.3258 10.4019C35.9892 9.92689 35.5454 9.54425 34.9945 9.25397V14.6769ZM20.3048 11.154C21.6208 11.154 22.9291 11.088 24.2297 10.9561C25.5304 10.8241 26.8234 10.613 28.1087 10.3227C28.629 10.1908 29.0115 9.94008 29.2564 9.57064C29.5012 9.20119 29.5471 8.80536 29.3941 8.38314C29.2411 7.96092 28.9503 7.63765 28.5219 7.41335C28.0934 7.18904 27.6344 7.14286 27.1447 7.2748C26.0124 7.53869 24.8801 7.72342 23.7477 7.82897C22.6154 7.93453 21.4678 7.9873 20.3048 7.9873C19.1419 7.9873 17.9866 7.93453 16.839 7.82897C15.6913 7.72342 14.5513 7.53869 13.419 7.2748C12.9294 7.14286 12.4703 7.18244 12.0418 7.39355C11.6134 7.60467 11.3227 7.93453 11.1696 8.38314C11.0166 8.80536 11.0625 9.20119 11.3074 9.57064C11.5522 9.94008 11.9347 10.1908 12.455 10.3227C13.7403 10.613 15.0334 10.8241 16.334 10.9561C17.6347 11.088 18.9583 11.154 20.3048 11.154Z" fill="#1C1B1F"/>
</svg>
