<svg width="78" height="70" viewBox="0 0 78 70" fill="none" xmlns="http://www.w3.org/2000/svg">
<path fill-rule="evenodd" clip-rule="evenodd" d="M18.3958 11.7083C18.3958 9.40501 19.0789 7.15341 20.3585 5.23831C21.6382 3.32311 23.457 1.83041 25.585 0.949011C27.713 0.0675107 30.0546 -0.163088 32.3137 0.286312C34.5727 0.735612 36.6478 1.84481 38.2765 3.47351C39.9052 5.10221 41.0144 7.17731 41.4637 9.43631C41.9131 11.6954 41.6825 14.037 40.801 16.165C39.9196 18.293 38.4269 20.1118 36.5117 21.3915C34.5966 22.6712 32.345 23.3542 30.0417 23.3542H6.75C6.0372 23.3542 5.3537 23.071 4.8497 22.567C4.3456 22.063 4.0625 21.3794 4.0625 20.6667C4.0625 19.9539 4.3456 19.2703 4.8497 18.7663C5.3537 18.2623 6.0372 17.9792 6.75 17.9792H30.0417C31.2819 17.9792 32.4943 17.6114 33.5256 16.9223C34.5568 16.2333 35.3605 15.2539 35.8352 14.1081C36.3098 12.9622 36.434 11.7014 36.192 10.485C35.95 9.26851 35.3528 8.15121 34.4758 7.27421C33.5988 6.39721 32.4815 5.80001 31.265 5.55801C30.0486 5.31601 28.7878 5.44021 27.6419 5.91481C26.4961 6.38951 25.5167 7.19321 24.8277 8.22451C24.1386 9.25571 23.7708 10.4681 23.7708 11.7083V12.9876C23.7708 13.7004 23.4877 14.3839 22.9837 14.8879C22.4797 15.3919 21.7961 15.6751 21.0833 15.6751C20.3706 15.6751 19.687 15.3919 19.183 14.8879C18.679 14.3839 18.3958 13.7004 18.3958 12.9876V11.7083Z" fill="black"/>
<path d="M7.646 42.1667C7.646 41.454 7.9291 40.7704 8.4331 40.2664C8.9372 39.7624 9.6207 39.4792 10.3335 39.4792H62.2918C65.3039 39.4792 68.2483 40.3724 70.7527 42.0458C73.2571 43.7192 75.2091 46.0977 76.3618 48.8805C77.5144 51.6632 77.816 54.7253 77.2284 57.6795C76.6408 60.6336 75.1903 63.3472 73.0605 65.4771C70.9306 67.6069 68.2171 69.0573 65.2629 69.645C62.3087 70.2326 59.2467 69.931 56.4639 68.7783C53.6811 67.6257 51.3026 65.6737 49.6292 63.1693C47.9558 60.6649 47.0627 57.7205 47.0627 54.7084V52.9167C47.0627 52.204 47.3458 51.5204 47.8498 51.0164C48.3538 50.5124 49.0374 50.2292 49.7502 50.2292C50.4629 50.2292 51.1465 50.5124 51.6505 51.0164C52.1545 51.5204 52.4377 52.204 52.4377 52.9167V54.7084C52.4377 56.6574 53.0156 58.5626 54.0984 60.1831C55.1812 61.8036 56.7202 63.0666 58.5208 63.8125C60.3214 64.5583 62.3028 64.7535 64.2143 64.3732C66.1258 63.993 67.8817 63.0545 69.2598 61.6764C70.6379 60.2982 71.5764 58.5424 71.9567 56.6309C72.3369 54.7193 72.1417 52.738 71.3959 50.9374C70.6501 49.1368 69.387 47.5978 67.7665 46.515C66.146 45.4322 64.2408 44.8542 62.2918 44.8542H10.3335C9.6207 44.8542 8.9372 44.5711 8.4331 44.0671C7.9291 43.5631 7.646 42.8795 7.646 42.1667Z" fill="#B7CDE8"/>
<path opacity="0.7" d="M47.0623 18.8749C47.0623 15.8629 47.9555 12.9185 49.6289 10.4141C51.3023 7.9096 53.6808 5.9577 56.4636 4.805C59.2463 3.6524 62.3084 3.3508 65.2626 3.9384C68.2167 4.526 70.9303 5.9764 73.0601 8.1063C75.19 10.2361 76.6404 12.9497 77.228 15.9039C77.8157 18.858 77.5141 21.9201 76.3614 24.7029C75.2088 27.4856 73.2568 29.8641 70.7524 31.5375C68.248 33.2109 65.3035 34.1041 62.2915 34.1041H3.1665C2.4537 34.1041 1.7702 33.8209 1.2662 33.3169C0.762204 32.8129 0.479004 32.1294 0.479004 31.4166C0.479004 30.7038 0.762204 30.0202 1.2662 29.5162C1.7702 29.0122 2.4537 28.7291 3.1665 28.7291H62.2915C64.2405 28.7291 66.1457 28.1512 67.7662 27.0684C69.3867 25.9856 70.6497 24.4466 71.3956 22.646C72.1414 20.8453 72.3365 18.864 71.9563 16.9525C71.5761 15.041 70.6376 13.2851 69.2595 11.907C67.8813 10.5288 66.1255 9.5903 64.214 9.2101C62.3024 8.8299 60.3211 9.025 58.5205 9.7709C56.7199 10.5167 55.1809 11.7797 54.0981 13.4002C53.0153 15.0208 52.4373 16.926 52.4373 18.8749V20.6666C52.4373 21.3794 52.1542 22.0629 51.6502 22.5669C51.1462 23.0709 50.4626 23.3541 49.7498 23.3541C49.0371 23.3541 48.3535 23.0709 47.8495 22.5669C47.3455 22.0629 47.0623 21.3794 47.0623 20.6666V18.8749Z" fill="black"/>
</svg>
